<svg width="29" height="18" viewBox="0 0 29 18" fill="none" xmlns="http://www.w3.org/2000/svg">
<path d="M18.384 0V17.28H15.912V5.436C15.912 5.244 15.916 5.036 15.924 4.812C15.94 4.58 15.96 4.348 15.984 4.116L10.428 14.376C10.212 14.8 9.88 15.012 9.432 15.012H9.036C8.58 15.012 8.248 14.8 8.04 14.376L2.4 4.092C2.424 4.324 2.44 4.556 2.448 4.788C2.464 5.02 2.472 5.236 2.472 5.436V17.28H0V0H2.1C2.348 0 2.54 0.0240002 2.676 0.0720005C2.812 0.112 2.936 0.244 3.048 0.468L8.592 10.512C8.712 10.744 8.824 10.984 8.928 11.232C9.04 11.472 9.14 11.72 9.228 11.976C9.324 11.72 9.424 11.468 9.528 11.22C9.64 10.964 9.756 10.72 9.876 10.488L15.336 0.468C15.448 0.244 15.572 0.112 15.708 0.0720005C15.844 0.0240002 16.036 0 16.284 0H18.384Z" fill="#1F2023"/>
<path d="M22.2846 15.06C22.9166 15.06 23.4486 14.988 23.8806 14.844C24.3206 14.692 24.6766 14.488 24.9486 14.232C25.2286 13.976 25.4286 13.676 25.5486 13.332C25.6766 12.98 25.7406 12.604 25.7406 12.204C25.7406 11.388 25.4606 10.748 24.9006 10.284C24.3486 9.812 23.4726 9.576 22.2726 9.576H18.8046V15.06H22.2846ZM18.8046 2.196V7.596H21.6126C22.8126 7.596 23.7086 7.364 24.3006 6.9C24.8926 6.436 25.1886 5.768 25.1886 4.896C25.1886 3.944 24.9086 3.256 24.3486 2.832C23.7966 2.408 22.9286 2.196 21.7446 2.196H18.8046ZM21.7446 0C22.8486 0 23.7926 0.108 24.5766 0.323999C25.3606 0.532 26.0046 0.832 26.5086 1.224C27.0126 1.616 27.3806 2.096 27.6126 2.664C27.8526 3.224 27.9726 3.856 27.9726 4.56C27.9726 4.968 27.9086 5.364 27.7806 5.748C27.6606 6.124 27.4686 6.48 27.2046 6.816C26.9486 7.144 26.6246 7.44 26.2326 7.704C25.8406 7.968 25.3766 8.188 24.8406 8.364C27.2886 8.884 28.5126 10.184 28.5126 12.264C28.5126 13 28.3726 13.676 28.0926 14.292C27.8206 14.9 27.4206 15.428 26.8926 15.876C26.3726 16.316 25.7286 16.66 24.9606 16.908C24.1926 17.156 23.3166 17.28 22.3326 17.28H15.9966V0H21.7446Z" fill="#1F2023"/>
</svg>
