<svg width="24" height="28" viewBox="0 0 24 28" fill="none" xmlns="http://www.w3.org/2000/svg">
<path d="M2.60797 7.99952L2.10791 8.28818V8.86558V19.1346V19.712L2.60797 20.0006L11.5 25.1336L11.9999 25.4222L12.4999 25.1336L21.3919 20.0006L21.8919 19.712V19.1346V8.86258V8.28501L21.3916 7.99639L12.4996 2.86639L11.9998 2.57801L11.5 2.86652L2.60797 7.99952ZM1.10791 7.71188L11.9999 1.42233L22.8919 7.71188V20.2854L11.9999 26.5777L1.10791 20.2854V7.71188ZM13.9999 13.9986C13.9999 15.1046 13.1043 15.9986 11.9999 15.9986C10.8955 15.9986 9.99991 15.1046 9.99991 13.9986C9.99991 12.8949 10.8962 11.9986 11.9999 11.9986C13.1036 11.9986 13.9999 12.8949 13.9999 13.9986Z" stroke="#1F2023" stroke-width="2"/>
</svg>
